<svg width="29" height="29" viewBox="0 0 29 29" fill="none" xmlns="http://www.w3.org/2000/svg">
<g clip-path="url(#clip0_5_496)">
<g filter="url(#filter0_d_5_496)">
<path d="M26.5834 24.1667L24.1667 26.5834L16.9167 19.3334V16.9167H19.3334L26.5834 24.1667Z" fill="#342500"/>
<path d="M10.875 19.3334C6.16252 19.3334 2.41669 15.5876 2.41669 10.8751C2.41669 6.16258 6.16252 2.41675 10.875 2.41675C15.5875 2.41675 19.3334 6.16258 19.3334 10.8751C19.3334 15.5876 15.5875 19.3334 10.875 19.3334ZM10.875 4.83341C7.49169 4.83341 4.83335 7.49175 4.83335 10.8751C4.83335 14.2584 7.49169 16.9167 10.875 16.9167C14.2584 16.9167 16.9167 14.2584 16.9167 10.8751C16.9167 7.49175 14.2584 4.83341 10.875 4.83341Z" fill="#342500"/>
<path d="M15.2537 16.1934L16.1083 15.3391L19.0983 18.3299L18.2438 19.1842L15.2537 16.1934Z" fill="#342500"/>
</g>
</g>
<defs>
<filter id="filter0_d_5_496" x="0.416687" y="0.416748" width="30.1667" height="30.1667" filterUnits="userSpaceOnUse" color-interpolation-filters="sRGB">
<feFlood flood-opacity="0" result="BackgroundImageFix"/>
<feColorMatrix in="SourceAlpha" type="matrix" values="0 0 0 0 0 0 0 0 0 0 0 0 0 0 0 0 0 0 127 0" result="hardAlpha"/>
<feOffset dx="1" dy="1"/>
<feGaussianBlur stdDeviation="1.5"/>
<feComposite in2="hardAlpha" operator="out"/>
<feColorMatrix type="matrix" values="0 0 0 0 0 0 0 0 0 0 0 0 0 0 0 0 0 0 0.25 0"/>
<feBlend mode="normal" in2="BackgroundImageFix" result="effect1_dropShadow_5_496"/>
<feBlend mode="normal" in="SourceGraphic" in2="effect1_dropShadow_5_496" result="shape"/>
</filter>
<clipPath id="clip0_5_496">
<rect width="29" height="29" fill="white"/>
</clipPath>
</defs>
</svg>
