<svg width="60" height="60" viewBox="0 0 60 60" fill="none" xmlns="http://www.w3.org/2000/svg">
<path d="M25.3125 11.1251C23.375 14.9376 21.5 18.1876 21.0625 18.3126C20.625 18.4376 16.9375 19.0626 12.8125 19.6876C3.12496 21.1251 3.06246 21.3126 10.5 28.8751L16.125 34.5626L14.9375 42.0626C14.3125 46.1876 13.75 49.9376 13.75 50.3751C13.75 52.3126 16.0625 51.7501 22.875 48.2501L30 44.5626L37.125 48.2501C43.9375 51.7501 46.25 52.3126 46.25 50.3751C46.25 49.9376 45.6875 46.1876 45.0625 42.0626L43.875 34.5626L49.5 28.8751C56.9375 21.3126 56.875 21.1251 47.1875 19.6876C43.0625 19.0001 39.375 18.3751 38.9375 18.2501C38.5 18.1251 36.625 14.9376 34.6875 11.1251C32.0625 5.87512 30.9375 4.25012 30 4.25012C29.0625 4.25012 27.9375 5.87512 25.3125 11.1251ZM32.9375 16.3751L35.5625 21.5626L40.75 22.3126C49.8125 23.6251 49.5 23.1251 44.375 28.3126L39.875 32.8126L40.875 39.3126C41.375 42.8751 41.6875 45.8751 41.5625 46.0001C41.4375 46.1251 38.8125 44.8751 35.75 43.2501L30.125 40.1876L24.375 43.2501C21.25 44.8751 18.5625 46.1251 18.375 46.0001C18.25 45.8126 18.5625 42.8126 19.125 39.2501L20.125 32.8751L15.625 28.3126C10.5 23.1251 10.1875 23.6251 19.25 22.3126L24.4375 21.5626L27.0625 16.3751C28.5 13.5001 29.8125 11.1251 30 11.1251C30.1875 11.1251 31.5 13.5001 32.9375 16.3751Z" fill="#ED8000"/>
</svg>
